<svg viewBox="0 0 673 649" fill="none" xmlns="http://www.w3.org/2000/svg">
  <path d="M212.798 283.332C212.798 306.931 165.265 311.835 110.576 334.511C61.6519 354.797 0 361.956 0 345.594C0 321.996 41.3664 292.747 94.722 283.332C153.135 263.313 212.798 259.734 212.798 283.332Z" fill="black" fill-opacity="0.15"/>
  <g clip-path="url(#clip0_612_1022)">
    <path d="M120.577 103.794C120.577 103.794 128.435 96.8443 137.452 102.283C146.468 107.721 153.08 119.125 157.889 123.352C162.698 127.582 163.9 132.324 162.698 135.671C161.496 139.017 162.698 144.29 150.075 140.146C137.452 136.008 123.602 118.86 123.602 118.86L120.577 103.794Z" fill="#3D58B0"/>
    <path d="M69.5502 295.557C69.5502 295.557 71.5579 296.055 73.0367 300.003C74.5178 303.952 74.0682 310.733 74.0682 310.733C74.0682 310.733 72.361 313.367 68.4706 315.267C66.0085 316.467 63.455 315.091 63.455 315.091C63.455 315.091 63.2578 317.349 57.8839 321.271C52.5076 325.192 51.5001 325.115 46.0637 326.109C41.6996 326.906 38.1242 322.944 38.1242 322.944C38.1242 322.944 37.0999 317.2 38.973 315.247C40.8485 313.293 52.0844 303.6 52.0844 303.6L69.5502 295.557Z" fill="#161413"/>
    <path d="M189.88 244.619C189.88 244.619 195.667 251.818 198.312 254.557C200.96 257.297 203.58 260 206.158 262.275C209.681 265.383 207.04 267.406 204.292 269.425C201.541 271.44 195.381 270.349 189.632 267.557C183.883 264.764 177.579 259.718 174.708 258.508C172.126 257.42 169.06 254.993 169.048 249.974C169.024 236.629 189.88 244.619 189.88 244.619Z" fill="#1C1B1A"/>
    <path d="M82.0218 302.221C82.0218 302.221 81.9328 302.336 81.7693 302.524C81.6203 303.1 81.6924 303.044 82.0218 302.221Z" fill="#161413"/>
    <path d="M189.106 187.299C180.83 175.728 136.391 165.939 136.391 165.939L106.932 165.197C106.932 165.197 98.2083 184.078 84.1736 218.913C75.3349 240.844 52.084 303.6 52.084 303.6C52.084 303.6 58.5086 307.182 68.3067 307.382C76.7102 307.554 80.7786 303.643 81.7692 302.524C82.767 298.631 94.0198 265.352 106.66 238.668C110.175 231.246 124.566 201.272 124.566 201.272C124.566 201.272 150.68 203.116 164.374 205.842C164.326 221.817 164.205 247.364 164.205 247.364C164.205 247.364 173.102 254.008 180.534 252.092C187.966 250.173 192.426 245.991 192.426 245.991C192.426 245.991 191.835 229.877 191.424 213.634C191.162 203.178 192.453 191.979 189.106 187.299Z" fill="#161413"/>
    <path d="M106.998 111.558C106.998 111.558 95.6375 119.892 91.134 125.439C86.6304 130.989 94.6565 144.72 99.0662 156.078C101.454 162.229 103.534 176.671 103.534 176.671C103.534 176.671 121.591 184.984 131.834 180.927C142.074 176.871 142.733 167.367 142.733 167.367C142.733 167.367 144.337 135.139 142.733 125.439C141.129 115.742 123.498 98.7654 123.498 98.7654L106.998 111.558Z" fill="#5285CD"/>
    <path d="M102.474 139.32C102.474 139.32 102.327 146.944 101.522 150.334C100.714 153.723 99.6104 157.635 99.6104 157.635L102.474 168.503L111.075 170.08C111.075 170.08 112.479 157.041 109.673 150.334C106.867 143.627 102.474 139.32 102.474 139.32Z" fill="#3D58B0"/>
    <path d="M148.464 167.482C148.464 167.482 152.595 148.456 156.757 141.176C160.919 133.896 160.767 131.891 163.756 124.245C166.233 117.914 171.366 106.233 167.998 99.9666C163.756 92.0728 161.08 88.2884 163.107 84.6364C166.137 79.1764 170.938 83.3845 172.54 92.0728C173.545 97.5135 177.75 99.4659 177.75 103.912C177.75 108.359 174.944 113.267 174.545 115.557C174.143 117.849 174.944 132.503 172.941 138.615C170.938 144.73 166.663 150.96 163.756 157.166C159.515 166.22 159.717 178.382 159.717 178.382L148.464 167.482Z" fill="#F68C83"/>
    <path d="M133.76 158.064C133.76 158.064 135.602 164.624 133.76 167.367C131.914 170.109 125.818 171.786 122.255 174.557C118.689 177.331 117.482 184.755 120.293 190.973C123.101 197.189 124.566 201.272 124.566 201.272C124.566 201.272 142.07 213.042 146.61 213.542C151.149 214.044 158.485 210.723 157.81 207.675C157.129 204.63 162.835 195.903 164.809 188.722C166.057 184.172 159.81 177.547 155.747 171.357C153.4 167.777 150.882 162.518 148.985 161.589C143.799 159.044 146.61 165.197 146.61 165.197L133.76 158.064Z" fill="#FABAAC"/>
    <path d="M134.261 160.375L133.761 167.366C133.761 167.366 138.139 176.796 146.61 176.671C153.956 176.564 150.286 167.665 149.515 164.172C148.745 160.678 148.344 157.871 148.344 157.871L134.261 160.375Z" fill="#F68C83"/>
    <path d="M106.999 99.1024C106.999 99.1024 108.134 104.168 106.999 111.558C105.867 118.951 119.49 118.041 123.499 114.081C127.507 110.123 123.499 98.7653 123.499 98.7653L106.999 99.1024Z" fill="#F68C83"/>
    <path d="M106.607 78.5C110.572 73.9933 124.323 70.4208 130.291 81.2949C131.606 83.6879 131.613 88.3534 131.786 91.0087C132.44 101.011 126.124 111.305 121.185 110.037C117.682 109.136 109.981 105.157 106.999 99.1024C103.642 92.2871 101.438 84.3716 106.607 78.5Z" fill="#FABAAC"/>
    <path d="M131.539 79.5785C131.539 79.5785 129.959 84.7616 124.821 85.8593C119.358 87.0221 112.032 83.5964 112.032 83.5964C112.032 83.5964 109.423 87.6745 109.81 89.6317C106.567 88.6977 105.016 93.356 105.016 93.356C105.016 93.356 101.267 88.9649 102.876 81.514C103.616 78.0883 105.057 73.1532 109.993 71.2537C110.892 70.9095 113.246 70.2667 115.8 69.7082C119.51 68.8945 122.118 66.0273 122.118 66.0273C122.118 66.0273 122.76 67.3851 122.563 70.5773C125.247 68.7236 127.495 66.4149 127.495 66.4149C127.495 66.4149 128.56 69.8045 128.074 72.0169C129.911 70.7939 132.073 70.7939 132.073 70.7939C132.073 70.7939 132.349 77.3613 131.539 79.5785Z" fill="#161413"/>
    <path d="M145.564 135.076C153.099 139.123 157.374 160.161 149.514 164.172C144.419 166.774 135.706 161.899 129.949 153.377C125.126 146.242 131.303 127.415 145.564 135.076Z" fill="#FABAAC"/>
    <path d="M151.412 142.83C151.412 142.83 151.448 145.173 149.154 146.446C146.86 147.72 144.576 148.228 144.576 148.228L144.617 145.028C144.617 145.028 142.532 148.586 141.25 149.532C141.337 147.178 140.253 146.439 140.253 146.439L137.935 151.135L139.995 159.603C139.995 159.603 131.024 162.367 126.326 157.484C121.625 152.602 120.827 139.313 124.814 134.633C128.803 129.958 132.59 130.196 132.59 130.196C132.59 130.196 138.841 124.7 146.624 128.003C150.597 129.688 157.377 137.941 157.781 142.994C158.207 148.295 153.516 151.249 153.516 151.249L151.412 142.83Z" fill="#161413"/>
    <path d="M22.6297 308.822C22.6297 308.822 19.3116 309.021 16.0367 310.844C12.7595 312.665 10.7518 313.478 10.7518 313.478C10.7518 313.478 8.79696 312.566 10.4584 311.498C12.1247 310.432 20.9634 304.705 22.6033 303.333C24.2455 301.966 22.6297 308.822 22.6297 308.822Z" fill="#D91E25"/>
    <path d="M19.7251 330.452C19.7251 330.452 18.7922 333.351 16.7268 334.514C14.6782 335.662 10.4055 334.848 9.69862 330.811C9.12396 327.513 9.69862 322.671 11.199 319.802C13.5 315.397 18.1718 312.91 19.0543 310.955C19.9343 309.003 21.0981 304.575 22.5672 303.227C23.8319 302.06 26.8399 302.322 26.8399 302.322L19.7251 330.452Z" fill="#ED1D24"/>
    <path d="M113.007 238.793C110.567 241.351 99.0472 260.074 92.5864 264.914C86.1257 269.755 81.0595 264.38 69.9102 274.437C63.3124 280.389 46.0654 294.705 40.1817 299.305C34.2956 303.904 29.7488 300.266 26.5701 302.353C23.3891 304.441 25.2669 307.58 22.6533 311.436C20.0397 315.29 17.0991 313.579 14.8437 319.162C12.5883 324.739 11.4438 334.535 17.3106 332.6C23.1751 330.66 24.1537 324.799 24.1537 324.799C24.1537 324.799 40.9247 313.94 46.0149 309.657C50.6675 305.74 86.1041 288.92 91.68 286.205C97.2534 283.491 119.319 265.309 130.711 255.397C142.103 245.491 113.007 238.793 113.007 238.793Z" fill="#F68C83"/>
    <path d="M22.6054 329.446C22.6054 329.446 19.8596 325.378 17.2964 325.052C14.7333 324.725 12.7256 324.937 12.7256 324.937C12.7256 324.937 13.1776 322.802 13.4686 321.35C14.2717 317.361 17.1281 314.213 17.0873 314.932C17.0873 314.932 25.2744 320.122 25.9885 325.409C26.1977 326.947 22.6054 329.446 22.6054 329.446Z" fill="#ED1D24"/>
    <path d="M44.4719 310.952L42.3656 312.457C42.3656 312.457 39.0162 307.998 37.6793 304.611C36.6839 302.096 37.0518 301.109 37.0518 301.109L38.7926 300.247C38.7926 300.247 39.3384 303.434 40.7498 306.07C42.1612 308.707 44.4719 310.952 44.4719 310.952Z" fill="#ED1D24"/>
    <path d="M18.6814 320.281C18.6814 320.281 15.4739 321.153 12.6391 323.601C9.80182 326.052 8.00088 327.257 8.00088 327.257C8.00088 327.257 5.89944 326.764 7.31325 325.379C8.72465 323.995 16.2144 316.588 17.5441 314.913C18.8713 313.239 18.6814 320.281 18.6814 320.281Z" fill="#D91E25"/>
    <path d="M20.2326 342.051C20.2326 342.051 19.9104 345.077 18.1215 346.637C16.3518 348.178 12.0022 348.255 10.4898 344.444C9.25632 341.331 8.8379 336.473 9.72273 333.358C11.0812 328.577 15.152 325.19 15.616 323.098C16.0801 321.006 16.3205 316.434 17.4819 314.814C18.4869 313.415 21.4829 313.059 21.4829 313.059L20.2326 342.051Z" fill="#ED1D24"/>
    <path d="M92.9448 233.312C91.0765 236.314 83.5987 256.991 78.2584 263.043C72.9158 269.1 66.8614 264.868 57.989 276.986C52.7377 284.156 38.7631 301.686 33.9326 307.387C29.1045 313.088 23.9133 310.454 21.2251 313.146C18.537 315.838 21.0111 318.529 19.2367 322.836C17.4622 327.142 14.2354 326.066 13.1582 331.989C12.0834 337.91 12.9563 347.735 18.3038 344.644C23.6536 341.55 23.4204 335.617 23.4204 335.617C23.4204 335.617 37.6355 321.564 41.747 316.335C45.51 311.554 76.7869 287.869 81.6944 284.074C86.5994 280.282 110.932 260.431 120.072 248.409C129.213 236.388 92.9448 233.312 92.9448 233.312Z" fill="#FABAAC"/>
    <path d="M22.8506 340.479C22.8506 340.479 19.3328 337.054 16.7601 337.256C14.1825 337.46 12.259 338.074 12.259 338.074C12.259 338.074 12.2662 335.895 12.259 334.413C12.2349 330.342 14.3893 326.68 14.4975 327.39C14.4975 327.39 23.5671 330.806 25.3416 335.836C25.8585 337.302 22.8506 340.479 22.8506 340.479Z" fill="#ED1D24"/>
    <path d="M40.5016 317.917L38.744 319.819C38.744 319.819 34.5603 316.138 32.5598 313.092C31.0787 310.834 31.2374 309.792 31.2374 309.792L32.7666 308.594C32.7666 308.594 33.9472 311.603 35.8659 313.896C37.7847 316.188 40.5016 317.917 40.5016 317.917Z" fill="#ED1D24"/>
    <path d="M129.903 170.299C129.903 170.299 137.165 180.171 135.921 189.168C134.678 198.159 123.702 201.405 123.702 201.405C123.702 201.405 125.816 210.93 122.255 212.223C118.691 213.518 107.253 210.851 100.254 221.817C89.8019 238.194 86.6689 243.307 86.6689 243.307C86.6689 243.307 96.6474 260.681 100.656 274.507C106.522 294.736 112.045 300.944 116.626 296.082C122.255 290.1 122.255 290.1 122.255 290.1C122.255 290.1 126.366 290.591 130.148 291.145C133.928 291.698 139.381 281.734 138.826 271.134C138.199 259.122 135.929 245.209 141.016 236.499C145.991 227.985 153.705 227.246 162.168 203.21C170.584 192.714 166.556 184.006 163.414 181.101C157.602 175.729 150.87 163.203 150.87 163.203L149.514 164.172C149.514 164.172 155.672 175.316 157.809 179.18C159.56 182.352 157.809 192.714 157.809 192.714L140.031 182.044L131.834 169.15L129.903 170.299Z" fill="#ED1D24"/>
    <path d="M133.76 240.826C133.76 240.826 132.995 253.56 133.358 262.388C133.717 271.219 125.602 286.891 125.602 286.891C125.602 286.891 128.487 272.523 129.679 260.277C130.634 250.488 133.76 240.826 133.76 240.826Z" fill="#D91E25"/>
    <path d="M127.088 236.087C127.088 236.087 120.158 249.536 118.987 261.977C117.814 274.418 116.011 288.954 116.011 288.954C116.011 288.954 122.12 273.008 123.573 261.977C125.027 250.946 127.088 236.087 127.088 236.087Z" fill="#D91E25"/>
    <path d="M98.1167 118.624C98.1167 118.624 93.0409 122.662 89.8045 125.439C83.5434 130.815 83.8247 133.39 82.0214 143.925C80.218 154.461 72.7907 172.285 74.6998 175.41C76.6113 178.535 81.6943 182.044 81.6943 182.044C81.6943 182.044 88.1815 173.183 91.4131 172.246C94.6446 171.312 94.6447 171.312 94.6447 171.312C94.6447 171.312 101.745 154.898 102.473 143.925C103.202 132.953 98.1167 118.624 98.1167 118.624Z" fill="#5285CD"/>
    <path d="M81.6943 182.044C81.6943 182.044 99.4992 190.501 113.815 192.114C121.55 192.988 128.939 192.261 131.834 182.947C133.599 177.258 135.895 167.508 127.088 170.712C124.008 171.832 123.383 177.819 120.492 182.044C118.232 185.349 114.996 181.878 112.678 181.115C110.362 180.349 94.6447 171.312 94.6447 171.312C94.6447 171.312 83.7742 166.897 81.6943 182.044Z" fill="#FABAAC"/>
    <path d="M128.317 172.489C124.965 167.41 111.459 168.943 105.569 163.864C98.134 157.447 83.967 152.729 77.4534 150.216C72.0338 148.125 68.2925 144.549 62.0241 140.642C51.9735 134.383 48.4703 136.535 48.6001 138.846C48.8406 143.136 56.013 147.932 56.8161 149.626C57.6168 151.319 54.8685 153.519 54.6762 156.629C54.4766 159.829 56.4674 158.952 58.0688 156.075C59.6726 153.197 60.8219 151.449 67.3043 153.739C72.6998 155.645 74.3685 159.523 87.6482 166.95C95.9267 171.579 113.681 182.044 120.493 189.567C123.063 192.405 130.132 175.24 128.317 172.489Z" fill="#FABAAC"/>
    <path d="M120.86 192.249C120.86 192.249 127.528 191.902 129.68 187.425C131.834 182.947 133.323 176.673 133.323 176.673C133.323 176.673 135.804 179.152 133.76 184.461C131.714 189.769 129.475 193.178 127.088 194.183C124.7 195.186 122.255 195.462 122.255 195.462L120.86 192.249Z" fill="#F68C83"/>
    <path d="M103.534 176.671C103.534 176.671 109.271 179.081 112.678 181.115C116.085 183.149 119.601 184.151 121.551 182.044C123.498 179.938 124.116 174.271 125.602 172.492C127.088 170.713 127.088 170.713 127.088 170.713L125.088 170.08C125.088 170.08 122.433 170.518 120.861 173.823C119.29 177.131 119.343 179.738 116.011 178.535C112.678 177.331 106.814 175.614 103.534 176.671Z" fill="#F68C83"/>
    <path d="M157.81 160.382C151.796 162.109 149.986 166.365 154.941 170.08C159.897 173.796 163.275 171.596 164.97 164.873C167.187 156.078 163.821 158.654 157.81 160.382Z" fill="#FABAAC"/>
  </g>
  <path d="M486.454 570.692C495.592 585.722 468.952 607.371 442.701 614.53C416.449 621.69 386.209 629.56 377.071 614.53C367.933 599.5 387.811 588.278 416.448 577.547C445.086 566.816 481.427 562.424 486.454 570.692Z" fill="black" fill-opacity="0.15"/>
  <ellipse cx="224.877" cy="581.201" rx="77.1643" ry="31.8499" transform="rotate(-31.2995 224.877 581.201)" fill="black" fill-opacity="0.15"/>
  <path d="M587.547 494.16C598.084 503.712 581.686 527.409 562.426 539.6C543.166 551.791 520.898 565.538 510.361 555.985C499.823 546.432 513.138 532.634 533.51 517.035C553.881 501.436 581.75 488.905 587.547 494.16Z" fill="black" fill-opacity="0.15"/>
  <g clip-path="url(#clip1_612_1022)">
    <path d="M574.265 377.138C574.265 377.138 581.757 394.83 581.394 414.146C581.029 433.462 581.83 451.123 581.819 458.913C581.808 466.702 581.819 475.364 581.819 475.364C581.819 475.364 576.814 473.21 574.313 467.139C573.229 464.508 569.687 460.461 567.534 460.962C565.38 461.465 558.638 461.869 557.717 460.962C556.796 460.058 550.812 439.74 550.812 439.74C550.812 439.74 575.087 392.002 574.265 377.138Z" fill="#D84D1F"/>
    <path d="M564.79 481.193C568.436 479.042 571.665 476.301 574.313 472.891C571.884 466.837 571.453 455.182 570.106 448.791C568.402 440.706 562.597 429.679 562.597 429.679L540.808 371.053C540.808 371.053 534.564 381.907 534.375 394.671C534.296 399.977 536.006 405.961 538.464 412.268C546.836 433.748 558.609 465.473 562.598 474.447C563.569 476.631 564.284 478.904 564.79 481.193Z" fill="#F68C83"/>
    <path d="M576.814 494.836C576.814 494.836 578.271 497.74 578.339 501.4C578.407 505.063 578.703 507.16 578.703 507.16C578.703 507.16 580.432 508.371 580.517 506.44C580.603 504.509 581.105 494.228 581.456 492.169C581.808 490.11 576.814 494.836 576.814 494.836Z" fill="#D84D1F"/>
    <path d="M559.264 508.537C559.264 508.537 557.156 511.04 557.275 513.587C557.395 516.111 564.211 516.926 566.326 516.116C569.685 514.836 572.822 512.821 573.417 511.355C575.424 506.402 576.13 499.96 577.407 498.044C578.684 496.128 581.336 494.999 581.729 492.889C582.068 491.07 581.31 488.935 581.31 488.935L559.264 508.537Z" fill="#F36118"/>
    <path d="M573.36 469.93C569.28 470.094 566.744 475.108 562.598 474.447C563.905 477.885 566.271 485.103 565.716 491.65C565.235 497.323 562.771 504.509 561.523 505.436C557.471 508.453 554.733 514.397 563.624 513.894C566.968 513.705 570.746 510.772 571.788 509.28C573.739 506.489 573.383 499.326 575.43 496.141C576.773 494.051 579.93 493.584 581.236 490.736C581.923 489.234 580.214 486.312 578.816 483.941C577.283 481.343 574.9 475.295 573.36 469.93Z" fill="#F68C83"/>
    <path d="M561.522 505.436C561.522 505.436 565.555 506.662 566.707 508.913C567.858 511.161 568.333 513.076 568.333 513.076C568.333 513.076 572.753 511.247 572.926 509.809C573.099 508.371 573.545 503.873 573.545 503.873C573.545 503.873 564.987 500.828 563.487 501.04C561.986 501.252 561.522 505.436 561.522 505.436Z" fill="#F36118"/>
    <path d="M565.251 483.627L565.488 485.461C565.488 485.461 570.813 486.031 574.219 485.006C576.747 484.248 578.245 482.781 578.245 482.781L577.491 480.626C577.491 480.626 575.049 483.131 572.175 483.642C569.303 484.153 565.251 483.627 565.251 483.627Z" fill="#F36118"/>
    <path d="M540.808 526.124C540.808 526.124 542.422 529.345 542.497 533.406C542.572 537.465 542.901 539.79 542.901 539.79C542.901 539.79 544.818 541.128 544.913 538.988C545.007 536.847 545.565 525.45 545.955 523.169C546.344 520.885 540.808 526.124 540.808 526.124Z" fill="#D84D1F"/>
    <path d="M521.354 541.315C521.354 541.315 519.015 544.086 519.149 546.914C519.282 549.711 526.835 550.613 529.181 549.716C532.905 548.298 536.384 546.063 537.042 544.436C539.268 538.949 540.049 531.807 541.466 529.682C542.881 527.56 545.821 526.305 546.258 523.968C546.634 521.95 545.793 519.585 545.793 519.585L521.354 541.315Z" fill="#F36118"/>
    <path d="M539.275 527.572C540.762 525.255 544.262 524.737 545.711 521.577C546.473 519.914 545.724 516.903 545.857 513.853C546.059 509.237 554.594 492.631 557.857 476.138C559.031 470.201 554.441 464.288 558.203 453.685C563.403 439.03 583.467 404.996 576.666 388.298C567.329 365.37 553.094 390.336 552.102 399.811C551.11 409.285 540.642 443.23 540.787 460.673C540.911 475.512 536.479 500.606 533.321 511.694C532.471 514.683 530.818 517.95 529.013 523.35C527.013 529.337 525.239 536.85 523.858 537.879C519.367 541.22 516.328 547.813 526.185 547.256C529.894 547.044 534.081 543.793 535.235 542.14C537.401 539.041 537.004 531.102 539.275 527.572Z" fill="#FABAAC"/>
    <path d="M523.857 537.879C523.857 537.879 528.328 539.238 529.604 541.729C530.88 544.222 531.405 546.344 531.405 546.344C531.405 546.344 536.306 544.319 536.498 542.725C536.689 541.131 537.185 536.145 537.185 536.145C537.185 536.145 527.698 532.768 526.035 533.003C524.371 533.235 523.857 537.879 523.857 537.879Z" fill="#F36118"/>
    <path d="M532.968 512.823L532.111 515.138C532.111 515.138 537.699 516.228 540.421 516.078C543.143 515.927 545.856 513.853 545.856 513.853L546.187 512.003C546.187 512.003 542.451 514.062 539.285 513.631C536.119 513.199 532.968 512.823 532.968 512.823Z" fill="#F36118"/>
    <path d="M543.342 463.777C543.342 463.777 545.171 468.043 546.737 469.062C547.729 467.77 547.369 467.1 546.158 465.006C544.948 462.911 543.342 463.777 543.342 463.777Z" fill="#F68C83"/>
    <path d="M561.781 321.634C559.399 316.531 548.366 309.223 548.366 309.223C548.366 309.223 540.183 309.09 534.58 318.996C528.783 329.244 522.933 346.447 522.933 346.447C522.933 346.447 514.493 341.77 507.57 337.395C507.375 340.961 507.036 344.496 506.099 347.903C508.401 350.246 510.829 352.744 512.921 354.634C517.898 359.132 520.555 361.503 524.178 361.768C527.801 362.032 537.061 352.915 537.061 352.915C537.061 352.915 564.163 326.74 561.781 321.634Z" fill="#F68C83"/>
    <path d="M545.246 318.865C545.246 318.865 536.505 335.617 537.092 339.727C537.677 343.839 539.858 353.628 539.858 353.628C539.858 353.628 557.839 348.343 564.51 342.47C571.179 336.598 572.377 320.383 572.377 320.383C572.377 320.383 566.86 316.776 563.787 313.287C563.277 311.647 562.006 308.173 562.371 304.781C558.346 304.975 545.246 318.865 545.246 318.865Z" fill="#F68C83"/>
    <path d="M545.019 312.809C545.019 312.809 545.442 315.585 542.345 320.434C539.903 324.258 534.213 329.732 531.694 333.63C527.403 340.268 530.37 345.487 534.469 352.797C536.893 357.125 539.331 367.649 537.711 375.986C535.934 385.136 536.435 388.615 537.407 394.446C539.302 405.816 546.493 409.116 550.058 409.755C554.435 398.342 551.867 390.985 559.218 384.104C570.86 373.202 576.666 388.298 576.666 388.298C576.666 388.298 576.827 384.553 574.265 377.138C573.142 373.886 569.208 369.235 570.146 365.975C573.228 355.288 579.277 333.63 579.277 333.63L572.315 315.348L563.787 313.287C563.787 313.287 556.509 326.679 549.692 333.711C544.91 338.644 540.443 348.332 540.443 348.332C540.443 348.332 538.388 336.181 543.174 329.279C546.557 324.398 548.431 323.07 548.681 321.785C549.523 317.432 545.019 312.809 545.019 312.809Z" fill="#F36118"/>
    <path d="M540.333 307.164C540.333 307.164 541.88 313.997 538.086 317.489C534.294 320.983 527.559 317.489 527.559 317.489C527.559 317.489 531.214 325.164 537.851 323.547C544.488 321.933 546.622 313.103 546.622 313.103L540.333 307.164Z" fill="#161413"/>
    <path d="M540.815 284.445C534.053 291.48 536.781 315.808 546.716 317.402C553.156 318.436 560.907 310.088 564.173 298.824C566.91 289.385 553.61 271.129 540.815 284.445Z" fill="#FABAAC"/>
    <path d="M542.516 351.822C542.516 351.822 546.293 356.46 552.816 355.944C559.339 355.428 565.803 351.043 565.803 351.043L572.376 358.167L570.145 365.975C570.145 365.975 566.983 360.583 561.702 361.444C556.421 362.302 550.584 362.622 546.293 358.509C542.002 354.399 542.516 351.822 542.516 351.822Z" fill="#D84D1F"/>
    <path d="M529.724 341.852C529.724 341.852 531.474 345.408 533.942 348.095C536.328 350.693 539.027 350.619 539.027 350.619C539.027 350.619 537.092 353.025 534.829 353.628C534.052 352.116 532.185 349.109 531.139 346.894C530.14 344.777 529.724 341.852 529.724 341.852Z" fill="#D84D1F"/>
    <path d="M572.377 314.633C581.529 310.237 595.433 314.032 611.614 308.643C627.59 303.322 637.354 303.355 645.416 302.78C651.031 302.377 661.907 296.581 666.853 297.403C672.361 298.32 675.393 302.364 670.648 305.133C665.945 307.879 661.64 307.217 658.557 308.643C660.335 310.563 662.053 312.99 661.994 313.626C661.757 316.237 658.143 313.371 655.236 311.48C651.686 309.174 647.34 309.925 645.753 310.321C639.577 311.851 619.854 317.769 612.502 321.573C601.834 327.093 581.621 328.743 579.276 333.629C576.931 338.513 579.276 339.425 575.369 347.561C564.509 342.47 563.088 319.093 572.377 314.633Z" fill="#FABAAC"/>
    <path d="M586.459 324.388C584.943 323.777 581.905 322.85 583.637 318.847C585.179 315.287 582.48 311.138 579.277 308.643C571.665 302.711 572.377 278.798 554.459 276.869C551.244 276.522 544.506 279.03 541.656 283.063C533.534 284.154 537.063 294.384 537.063 294.384C537.063 294.384 540.842 293.633 542.497 291.36C545.341 293.115 549.08 297.289 554.719 298.213C556.118 301.902 554.744 309.194 561.935 314.331C568.871 319.287 568.181 327.757 566.247 329.116C564.314 330.475 561.935 329.116 561.935 329.116C561.935 329.116 562.863 333.213 566.535 332.784C571.071 332.255 572.377 329.205 572.377 329.205C572.377 329.205 570.714 335.599 576.394 339.356C582.689 343.525 588.26 338.899 588.26 338.899C588.26 338.899 583.9 337.308 582.452 335.576C581.003 333.847 581.535 329.116 581.535 329.116C581.535 329.116 583.915 330.232 588.034 329.116C592.152 328 592.764 321.573 592.764 321.573C592.764 321.573 588.283 325.121 586.459 324.388Z" fill="#161413"/>
    <path d="M570.556 369.603C570.556 369.603 535.961 383.299 537.71 375.986C537.71 375.986 534.316 386.679 534.372 400.273C534.44 416.675 543.342 439.74 543.342 439.74C543.342 439.74 547.311 418.161 554.434 404.672C562.11 390.137 575.309 388.165 570.556 369.603Z" fill="#F36118"/>
    <path d="M537.185 386.776C537.185 386.776 536.299 399.53 540.807 405.951C544.706 411.505 550.559 407.972 550.559 407.972C550.559 407.972 546.833 407.045 542.496 401.307C540.308 398.413 537.185 386.776 537.185 386.776Z" fill="#D84D1F"/>
    <path d="M543.342 397.928C543.342 397.928 550.096 402.909 556.134 392.587C562.173 382.265 561.929 372.785 561.929 372.785C561.929 372.785 556.872 384.053 552.967 389.741C549.645 394.577 543.342 397.928 543.342 397.928Z" fill="#D84D1F"/>
    <path d="M450.5 581.395C450.5 581.395 458.048 579.148 465.455 577.561C472.862 575.972 477.293 573.484 479.073 577.648C480.854 581.814 476.09 586.862 469.827 592.484C463.564 598.103 458.097 596.098 456.085 597.261C453.425 600.809 447.016 601.013 443.888 598.586C442.392 597.427 441.529 596.819 441.438 591.454C441.383 588.279 441.259 585.355 441.259 585.355L450.5 581.395Z" fill="#1C1B1A"/>
    <path d="M455.576 442.055C455.576 442.055 459.578 467.695 460.431 478.909C461.287 490.12 464.323 505.398 463.836 509.768C463.424 513.48 464.3 554.83 464.528 567.387C464.568 569.615 463.138 571.083 463.061 571.487C462.271 575.566 465.135 575.007 465.348 576.591C465.789 579.85 463.805 582.568 458.094 584.425C449.604 587.189 439.855 586.931 439.855 586.931C439.855 586.931 434.903 559.461 438.51 524.855C440.154 509.079 429.969 467.394 430.862 463.713C431.757 460.03 455.576 442.055 455.576 442.055Z" fill="#161413"/>
    <path d="M391.76 565.574C388.263 567.155 382.644 571.799 380.502 575.298C379.95 581.51 384.491 586.698 384.491 586.698C384.491 586.698 383.618 593.467 384.491 600.369C384.861 603.291 388.748 609.315 391.456 612.74C395.141 617.399 397.97 618.807 399.121 615.524C399.91 613.266 400.904 598.803 402.224 591.444C403.581 583.871 405.253 578.626 405.253 578.626L391.76 565.574Z" fill="#1C1B1A"/>
    <path d="M412.839 438.09C412.839 438.09 404.979 454.566 404.662 465.545C404.343 476.521 402.066 493.237 404.119 499.186C407.217 508.154 407.767 515.986 407.767 515.986C407.767 515.986 401.95 515.83 403.93 520.213C405.911 524.594 400.834 530.768 395.892 541.248C390.952 551.729 385.599 567.198 385.599 567.198C385.599 567.198 385.599 574.19 389.865 580.923C394.796 588.703 403.693 592.484 403.693 592.484C403.693 592.484 411.601 572.08 417.912 558.12C424.837 542.799 432.207 532.548 433.477 525.082C436.088 509.72 441.529 452.482 441.529 452.482L412.839 438.09Z" fill="#161413"/>
    <path d="M475.309 360.218C475.309 360.218 479.266 354.828 479.323 347.793C479.38 340.759 479.584 337.489 482.157 333.693C483.303 332.005 485.357 336.738 484.726 344.391C487.549 345.252 493.956 337.975 493.956 337.975C493.956 337.975 499.733 336.281 499.134 342.751C498.8 346.343 497.939 349.094 493.964 353.446C491.683 355.944 487.671 356.205 484.726 361.702C481.146 368.387 477.696 375.738 477.696 375.738L471.841 366.157L475.309 360.218Z" fill="#FABAAC"/>
    <path d="M435.383 354.044C435.383 354.044 446.563 357.909 451.959 369.339C457.354 380.77 459.349 384.85 459.349 384.85L475.348 358.902C475.348 358.902 483.719 364.435 484.726 369.794C483.24 375.483 481.1 373.112 482.587 383.452C483.067 386.786 478.658 390.17 471.841 397.818C467.721 402.436 460.779 409.001 459.076 409.905C453.233 413.017 450.17 409.977 446.049 408.559C440.73 406.728 435.383 399.269 435.383 399.269V354.044Z" fill="#9DD9F4"/>
    <path d="M416.098 363.733C416.098 363.733 405.388 364.519 400.395 373.521C398.539 376.865 395.283 377.861 393.358 379.404C387.092 384.426 377.963 389.307 371.804 396.602C363.824 406.051 353.47 411.4 350.809 419.699C349.967 422.33 351.968 424.884 354.321 430.823C356.436 436.162 358.921 437.173 364.746 436.862C370.061 436.578 370.624 426.072 383.56 417.972C392.655 412.281 409.574 403.06 413.565 401.231C417.553 399.397 425.203 399.788 423.873 387.052C422.543 374.318 416.098 363.733 416.098 363.733Z" fill="#BCE7F9"/>
    <path d="M440.065 357.37C440.065 357.37 443.633 358.902 449.878 379.072C454.939 395.417 453.381 407.264 454.928 421.336C455.554 427.025 463.366 427.543 459.229 435.383C456.514 440.525 460.673 444.502 459.892 449.284C459.892 449.284 453.959 459.751 451.959 462.576C449.448 466.124 445.767 471.08 435.383 467.79C425.384 464.622 418.542 452.946 415.521 452.188C407.963 450.293 404.661 465.545 404.661 465.545C404.281 462.906 401.529 459.133 403.331 450.292C404.992 442.141 408.15 427.858 407.483 420.825C406.715 412.728 402.828 390.546 402.828 385.991C402.828 381.437 397.341 380.916 406.402 371.526C415.463 362.134 431.255 354.522 440.065 357.37Z" fill="#BCE7F9"/>
    <path d="M430.417 325.759C420.957 327.376 421.33 340.35 421.831 348.825C423.758 350.92 428.049 355.428 430.494 356.764C435.276 359.38 440.104 361.684 440.104 361.684C440.326 361.763 446.796 362.645 448.876 360.218C451.266 357.431 451.873 351.668 451.953 345.995C452.035 340.373 451.367 322.173 430.417 325.759Z" fill="#FABAAC"/>
    <path d="M418.597 367.135C418.597 367.135 418.611 367.109 418.617 367.096C418.582 367.086 418.597 367.135 418.597 367.135Z" fill="#F68C83"/>
    <path d="M423.059 351.671C423.446 358.787 418.831 366.703 418.617 367.097C418.753 367.138 419.669 368.124 425.437 376.806C435.942 392.622 438.737 388.737 438.737 388.737C438.737 388.737 436.265 375.702 436.791 371.393C437.317 367.089 437.367 366.215 438.682 360.994C438.682 360.994 435.277 359.38 430.494 356.764C428.05 355.428 422.826 347.4 423.059 351.671Z" fill="#F68C83"/>
    <path d="M438.016 363.733C438.016 363.733 441.788 364.982 442.785 370.417C443.871 376.333 446.285 379.626 445.667 381.608C443.014 380.282 440.348 377.074 440.348 377.074C440.348 377.074 442.217 384.27 440.574 386.947C438.737 389.94 437.466 395.598 437.466 395.598C437.466 395.598 436.756 377.547 436.769 374.471C436.791 369.199 438.016 363.733 438.016 363.733Z" fill="#9DD9F4"/>
    <path d="M420.973 351.007C419.657 346.996 416.677 342.365 417.537 334.478C418.395 326.592 422.634 322.901 424.63 321.241C426.624 319.58 431.387 316.855 435.512 317.729C439.637 318.602 451.706 321.154 453.112 324.051C454.517 326.95 449.964 333.926 449.964 333.926C449.964 333.926 445.934 337.379 444.911 338.705C443.83 340.102 442.03 344.391 442.03 344.391C442.03 344.391 438.815 337.974 435.512 339.913C434.432 340.547 434.382 343.129 435.512 345.127C434.199 348.355 431.289 350.894 428.539 353.661C425.878 356.338 422.229 358.371 422.229 358.371C422.229 358.371 421.435 352.417 420.973 351.007Z" fill="#161413"/>
    <path d="M354.088 425.599C350.966 423.788 340.161 431.362 336.504 433.789C332.845 436.215 334.055 437.628 335.727 439.968C336.149 440.558 335.473 442.149 336.06 442.964C336.91 444.142 337.747 443.518 338.277 446.32C338.542 447.725 340.382 446.32 341.49 448.842C342.659 451.501 346.261 450.063 348.362 448.068C349.697 446.798 355.1 441.638 357.892 438.09C359.494 436.054 360.441 433.459 360.441 431.761C360.441 427.101 354.088 425.599 354.088 425.599Z" fill="#FABAAC"/>
    <path d="M349.359 426.213C349.359 426.213 353.128 421.778 355.012 420.223C357.671 420.447 359.542 421.484 362.215 425.308C364.627 428.757 365.85 430.775 363.435 433.314C361.218 435.643 357.893 438.09 357.893 438.09C357.893 438.09 356.208 430.552 349.359 426.213Z" fill="#9DD9F4"/>
    <path d="M385.599 411.239C385.599 411.239 391.983 404.383 398.455 401.588C404.928 398.791 408.874 397.818 408.874 397.818C408.874 397.818 403.803 402.413 399.396 404.917C394.785 407.537 385.599 411.239 385.599 411.239Z" fill="#9DD9F4"/>
    <path d="M401.182 392.865C395.773 393.907 388.923 400.812 388.923 400.812C388.923 400.812 397.511 397.32 400.782 396.102C404.738 394.63 411.737 394.025 411.737 394.025C411.737 394.025 408.873 391.384 401.182 392.865Z" fill="#9DD9F4"/>
    <path d="M422.95 357.944C422.275 356.91 420.864 354.614 417.961 357.944C414.951 361.4 414.414 363.873 414.414 363.873C414.414 363.873 417.384 368.2 421.622 372.783C424.288 375.667 425.607 380.844 429.819 384.617C431.958 386.53 433.299 389.228 435.383 392.413C437.466 395.598 437.466 395.598 437.466 395.598C437.466 395.598 438.333 384.17 436.791 380.788C435.25 377.406 431.414 374.254 428.676 371.393C425.941 368.532 424.929 360.989 422.95 357.944Z" fill="#9DD9F4"/>
    <path d="M419.956 444.052C419.956 444.052 424.209 454.612 430.727 457.938C437.245 461.266 443.451 457.938 443.451 457.938C443.451 457.938 437.466 457.493 431.704 453.945C425.941 450.395 419.956 444.052 419.956 444.052Z" fill="#9DD9F4"/>
    <path d="M429.246 446.32C429.246 446.32 436.283 453.68 441.529 452.482C446.775 451.284 453.381 444.052 453.381 444.052C453.381 444.052 445.371 448.303 441.529 448.129C437.687 447.955 429.246 446.32 429.246 446.32Z" fill="#9DD9F4"/>
    <path d="M451.96 420.097C451.96 420.097 448.526 426.879 445.767 431.094C443.008 435.309 437.709 438.09 437.709 438.09C437.709 438.09 444.216 439.815 447.712 433.789C451.209 427.766 451.96 420.097 451.96 420.097Z" fill="#9DD9F4"/>
    <path d="M510.076 338.953C508.587 338.005 504.583 335.354 501.585 332.958C496.672 329.029 489.74 334.912 486.255 336.503C482.768 338.092 480.901 344.069 481.718 348.524C482.535 352.981 487.434 351.758 488.448 349.883C489.464 348.006 490.637 345.106 494.173 342.818C498.431 340.061 498.238 340.156 501.603 341.523C502.704 341.967 504.559 346.396 506.819 348.639C507.538 345.4 509.94 342.309 510.076 338.953Z" fill="#F68C83"/>
  </g>
  <g clip-path="url(#clip2_612_1022)">
    <path d="M192.478 368.096C192.478 368.096 188.562 382.487 189.249 387.307C189.938 392.127 201.029 409.08 201.029 409.08C201.029 409.08 209.582 405.207 217.408 398.32C225.235 391.436 222.652 368.096 222.652 368.096L204.656 355.867L192.478 368.096Z" fill="#C14A22"/>
    <path d="M258.758 538.349C258.758 538.349 250.179 542.361 245.348 543.455C240.515 544.551 238.113 544.82 234.753 546.691C231.395 548.563 232.763 553.554 232.763 553.554C232.763 553.554 237.596 557.683 245.622 558.779C253.65 559.872 261.675 555.86 261.675 555.86V558.967C261.675 558.967 271.43 559.962 275.54 559.274C281.011 558.355 283.201 551.117 283.201 551.117L279.188 535.066L258.758 538.349Z" fill="#1C1B1A"/>
    <path d="M186.23 582.282C186.23 582.282 178.595 591.557 175.112 595.08C171.63 598.602 168.182 602.081 164.797 604.999C160.167 608.989 163.576 611.655 167.125 614.318C170.675 616.981 178.709 615.648 186.23 612.101C193.75 608.552 202.026 602.081 205.779 600.547C209.157 599.168 214.379 594.71 215.502 588.282C216.755 581.104 186.23 582.282 186.23 582.282Z" fill="#1C1B1A"/>
    <path d="M206.91 432.583C206.91 432.583 209.501 467.562 226.446 494.098C233.123 504.554 237.085 511.604 240.907 518.396C247.559 530.211 249.466 542.203 249.466 542.203C249.466 542.203 257.845 547.293 271.686 546.183C278.645 545.625 283.201 535.066 283.201 535.066C283.201 535.066 266.335 494.098 251.741 480.591C249.552 476.932 246.089 420.529 246.089 420.529L206.91 432.583Z" fill="#161413"/>
    <path d="M229.016 565.402V571.334C229.016 571.334 228.279 574.043 223.28 575.974C218.28 577.908 215.539 577.8 215.539 577.8L213.252 571.334L229.016 565.402Z" fill="#CCCCC9"/>
    <path d="M215.716 559.516C215.716 559.516 222.336 558.803 227.572 562.783C230.265 564.828 229.666 568.62 221.976 571.051C214.284 573.483 215.716 559.516 215.716 559.516Z" fill="#F68C83"/>
    <path d="M234.209 479.334C234.209 479.334 245.837 486.39 244.739 494.098C243.643 501.806 236.583 518.518 232.486 530.192C228.392 541.866 218.986 559.516 218.986 559.516L215.538 540.242L234.209 479.334Z" fill="#F68C83"/>
    <path d="M207.356 443.447C207.356 443.447 205.927 476.546 202.666 497.588C199.406 518.627 183.383 576.434 179.734 586.615C179.239 594.557 192.476 600.998 200.16 596.989C207.845 592.977 216.755 584.3 216.755 584.3C216.755 584.3 224.808 552.058 225.473 536.029C226.138 520.003 233.633 501.159 235.492 496.396C237.348 491.634 254.661 459.274 251.269 427.75C249.632 412.518 207.356 443.447 207.356 443.447Z" fill="#161413"/>
    <path d="M178.483 354.175C178.483 354.175 156.52 349.113 144.114 346.997C135.677 345.558 128.424 339.509 120.992 337.031C118.116 336.074 112.662 336.947 113.022 339.857C113.272 341.881 109.874 348.096 108.968 349.967C106.702 354.645 111.966 358.032 117.011 361.108C125.689 366.398 136.452 371.504 144.844 372.932C155.686 374.773 163.915 378.549 169.259 380.939C172.911 382.574 181.657 391.134 183.378 388.487C185.099 385.838 178.483 354.175 178.483 354.175Z" fill="#1C1B1A"/>
    <path d="M206.115 360.439C206.115 360.439 214.042 364.579 215.016 367.984C215.988 371.39 208.725 379.463 206.744 383.3C203.356 389.866 200.198 401.864 200.198 401.864C200.198 401.864 195.685 395.744 194.34 390.568C192.388 383.056 194.34 373.601 194.34 373.601L189.168 357.934C189.168 357.934 176.828 368.221 175.855 368.95C174.883 369.682 174.863 382.011 179.243 389.034C183.621 396.054 199.671 416.152 203.583 425.131C207.496 434.109 208.854 445.277 208.854 446.771C208.854 448.261 219.636 447.361 226.933 448.161C234.23 448.963 247.489 441.159 251.012 434.466C252.696 431.267 247.12 409.08 242.743 392.056C238.365 375.032 230.376 365.789 223.061 360.439C215.744 355.089 205.851 351.858 205.851 351.858L206.115 360.439Z" fill="#1C1B1A"/>
    <path d="M191.3 369.314C191.3 369.314 189.111 374.787 188.016 377.95C186.922 381.113 186.546 385.125 186.065 387.922C185.584 390.718 185.22 392.176 185.22 392.176C185.22 392.176 187.401 391.447 189.168 392.176C190.935 392.907 193.733 397.651 195.434 399.228C197.138 400.811 202.123 402.634 202.123 402.634C202.123 402.634 194.34 392.056 194.584 388.164C194.828 384.274 196.529 371.868 194.949 370.228C193.368 368.585 191.3 369.314 191.3 369.314Z" fill="#161413"/>
    <path d="M206.115 360.439C206.115 360.439 208.985 362.642 209.203 366.526C209.421 370.41 207.232 375.929 203.583 382.474C199.934 389.015 200.793 390.696 200.3 394.246C199.807 397.792 201.272 406.659 201.272 406.659C201.272 406.659 202.854 401.296 206.115 400.934C206.841 399.163 205.529 390.84 207.718 387.312C210.447 382.914 215.501 374.727 215.501 369.072C215.501 363.417 208.285 356.027 208.285 356.027L206.115 360.439Z" fill="#161413"/>
    <path d="M202.362 332.309C196.326 327.712 182.027 326.238 176.809 341.01C171.335 356.501 185.354 375.848 192.826 372.562C197.011 370.721 205.808 364.182 208.285 356.027C211.073 346.847 207.051 335.881 202.362 332.309Z" fill="#D86638"/>
    <path d="M200.805 354.398C200.805 354.398 203.573 348.618 206.181 350.304C208.109 351.55 208.285 356.027 208.285 356.027C208.285 356.027 213.033 349.214 210.974 339.958C209.691 334.189 202.491 324.253 192.387 325.398C179.328 326.872 174.089 338.992 175.571 345.972C177.218 340.921 182.025 339.498 188.41 341.095C199.241 343.806 200.805 354.398 200.805 354.398Z" fill="#161413"/>
    <path d="M117.736 449.161C117.736 449.161 111.864 443.55 111.75 431.125C111.644 419.397 107.752 401.176 104.348 394.852C100.942 388.528 93.6454 376.642 91.2132 353.446C90.6351 347.933 88.5142 343.504 87.5651 336.607C86.9414 332.075 89.2633 328.409 92.0641 326.026C93.9715 324.405 95.2508 323.404 97.1732 323.899C99.5439 324.505 101.961 326.026 102.347 327.908C103.366 332.878 100.952 339.705 99.9699 344.013C99.057 348.011 103.169 356.103 105.018 359.62C111.497 371.939 111.75 374.428 120.657 395.839C125.107 406.54 134.209 430.144 134.209 430.144L117.736 449.161Z" fill="#FABAAC"/>
    <path d="M124.333 439.636C136.818 428.049 131.808 432.82 139.736 426.278C148.646 418.929 163.906 424.07 168.284 425.753C172.061 427.209 185.875 451.735 195.192 461.954C196.674 463.58 205.767 458.453 206.031 459.274C207.961 465.258 206.115 483.139 206.115 483.139C206.115 483.139 196.285 511.068 186.07 505.307C175.855 499.549 179.575 470.032 175.197 464.728C170.819 459.424 160.79 477.895 152.505 472.189C142.689 465.432 116.333 447.059 124.333 439.636Z" fill="#FABAAC"/>
    <path d="M118.113 453.029C118.113 453.029 124.298 447.535 131.508 441.788C139.114 435.722 144.829 433.658 145.757 434.648C149.917 439.092 147.878 449.102 144.018 455.953C135.054 458.834 128.244 467.995 128.244 467.995L118.113 453.029Z" fill="#F68C83"/>
    <path d="M260.984 436.56C261.376 438.872 262.18 446.028 258.189 452.937C252.441 462.884 241.526 475.23 236.918 483.012C232.266 490.87 232.277 491.416 228.878 500.036C226.207 506.814 227.045 507.603 226.873 511.109C226.7 514.615 227.955 516.878 225.773 517.656C223.588 518.431 218.986 507.891 218.986 507.891C218.986 507.891 222.863 496.481 223.954 492.074C225.046 487.671 225.578 483.186 228.415 478.918C231.25 474.656 260.984 436.56 260.984 436.56Z" fill="#F68C83"/>
    <path d="M224.029 484.584C224.029 484.584 226.479 492.001 224.318 498.73C222.158 505.459 221.886 512.569 223.279 514.903C224.257 516.543 225.773 517.656 225.773 517.656L223.279 520.863C223.279 520.863 215.809 516.761 216.414 506.343C217.02 495.921 218.986 484.989 218.986 484.989L224.029 484.584Z" fill="#CCCCC9"/>
    <path d="M218.986 507.891L227.02 508.789L227.572 506.343L218.986 503.895C218.986 507.891 218.986 507.891 218.986 507.891Z" fill="#CCCCC9"/>
    <path d="M224.915 484.584L232.8 492.586L234.21 489.684L226.63 482.111L224.915 484.584Z" fill="#CCCCC9"/>
    <path d="M211.494 455.866C211.494 455.866 227.906 438.263 242.013 430.481C256.119 422.699 260.499 427.562 261.957 430.481C263.417 433.399 261.957 437.292 261.957 441.181C261.957 445.073 250.974 458.529 242.986 466.311C234.998 474.093 218.686 499.204 209.45 497.542C200.214 495.882 211.494 455.866 211.494 455.866Z" fill="#FABAAC"/>
    <path d="M232.169 461.159C228.635 448.218 218.055 446.289 218.055 446.289L206.116 450.622C206.116 450.622 196.491 451.99 192.388 448.218C181.254 437.983 183.927 433.835 174.968 428.414C167.285 423.763 160.028 420.523 152.14 418.246C144.255 415.97 135.304 420.006 130.251 429.872C127.544 435.156 117.736 443.727 117.736 443.727L121.232 448.22C121.232 448.22 129.831 440.863 134.209 437.066C138.588 433.266 139.948 427.671 148.753 426.279C154.827 425.318 166.005 426.279 166.005 426.279C166.005 426.279 159.468 429.232 153.905 437.939C142.105 456.41 142.828 465.286 142.828 465.286C142.828 465.286 149.83 472.567 158.688 473.864C165.964 474.928 167.792 469.134 172.023 466.167C172.792 468.313 173.289 470.872 173.082 473.864C172.451 483.012 169.311 497.561 168.769 507.79C168.316 516.331 175.328 515.238 175.328 515.238C175.328 515.238 173.341 520.952 175.328 524.842C177.315 528.734 185.87 527.763 185.87 527.763C185.87 527.763 187.594 531.922 192.288 532.072C199.206 532.289 201.029 520.272 201.029 520.272C201.029 520.272 207.739 524.012 211.61 519.614C216.96 513.532 222.555 516.331 223.529 505.022C223.918 500.482 222.604 493.143 225.871 484.967C228.508 478.371 233.841 467.277 232.169 461.159Z" fill="#ED1D24"/>
    <path d="M156.068 455.322C156.068 455.322 167.708 446.085 173.545 451.593C179.383 457.098 189.168 463.716 189.168 463.716L203.949 453.535L211.492 451.202C211.492 451.202 216.365 452.317 219.879 456.138C225.352 462.092 225.96 470.244 225.96 470.244C225.96 470.244 221.922 464.943 217.811 461.954C214.165 459.302 209.665 458.2 209.665 458.2C209.665 458.2 218.921 469.167 220 473.902C223.163 487.755 217.204 501.496 217.204 501.496C217.204 501.496 215.716 485.566 211.492 476.81C208.785 471.202 202.61 466.311 202.61 466.311C202.61 466.311 207.691 481.189 208.57 489.7C209.784 501.497 206.91 521.738 206.91 521.738C206.91 521.738 203.574 521.994 201.029 520.272C199.57 517.425 198.684 497.827 198.38 492.281C197.745 480.702 194.549 474.849 194.549 474.849C194.549 474.849 193.264 498.649 192.031 506.091C189.222 523.02 185.87 527.763 185.87 527.763C185.87 527.763 187.182 507.548 187.287 501.374C187.409 494.199 186.065 485.688 186.065 485.688L175.328 515.238C175.328 515.238 171.112 515.602 170.392 513.628C170.938 506.091 181.163 486.792 180.698 483.139C180.234 479.487 175.13 469.638 172.573 467.995C170.019 466.352 156.068 455.322 156.068 455.322Z" fill="#D91E25"/>
    <path d="M183.664 458.205C183.664 458.205 171.721 461.567 168.072 461.954C164.423 462.34 168.476 471.843 175.571 473.902C182.666 475.961 189.517 471.696 192.388 464.728C195.257 457.757 183.664 458.205 183.664 458.205Z" fill="#D86638"/>
    <path d="M193.106 462.96C198.245 465.204 201.722 462.016 204.98 459.16C207.162 457.251 209.087 455.047 211.344 453.217C214.315 450.804 226.896 445.171 230.946 438.004C232.71 434.884 242.471 384.981 232.487 374.545C230.394 372.358 224.744 370.228 221.338 373.666C214.077 381.002 213.323 420.528 213.323 420.528C213.323 420.528 206.91 427.214 200.035 434.343C195.584 438.959 190.1 445.696 186.293 450.521C185.037 454.931 189.216 461.26 193.106 462.96Z" fill="#161413"/>
    <path d="M151.533 461.467C149.099 468.419 149.506 470.418 149.506 470.418C149.506 470.418 155.788 475.717 169.129 483.909C175.855 488.041 180.897 497.196 189.167 505.057C197.437 512.918 206.59 520.661 206.91 525.329C207.232 529.996 201.515 544.216 201.028 550.138C200.543 556.056 206.17 554.672 209.449 550.866C212.728 547.056 217.558 535.811 217.568 535.787C218.242 533.888 222.48 538.099 227.54 535.787C230.324 534.514 230.946 532.289 230.946 532.289C230.946 532.289 224.536 531.095 223.06 530.119C219.357 527.665 217.035 522.671 213.354 515.238C211.128 510.742 196.071 490.995 192.287 483.357C188.503 475.717 182.583 470.154 179.243 466.961C173.48 461.453 169.209 452.3 163.694 451.626C158.981 451.047 152.653 458.265 151.533 461.467Z" fill="#FABAAC"/>
    <path d="M134.918 470.228C129.155 478.923 118.356 481.913 110.796 476.908C103.238 471.898 101.782 460.787 107.547 452.091C110.354 447.856 114.178 445.283 118.575 443.49C123.209 441.606 128.05 441.399 132.318 443.248C135.966 444.829 136.475 449.477 137.304 453.465C138.482 459.122 138.299 465.125 134.918 470.228Z" fill="#FABAAC"/>
    <path d="M107.547 452.091C107.547 452.091 94.6792 462.707 95.0437 481.858C95.3698 498.994 99.2407 506.379 96.3208 511.922C93.0375 518.156 85.375 516.696 85.375 516.696C85.375 516.696 88.6595 522.533 96.0967 520.784C98.6309 524.722 93.0375 528.976 94.6185 534.936C96.002 540.15 101.828 542.051 102.826 545.176C104.021 548.919 99.3621 553.257 99.3621 553.257C99.3621 553.257 105.898 552.115 107.547 549.566C109.698 546.245 109.696 540.465 109.696 540.465C109.696 540.465 114.335 545.677 111.036 553.257C107.631 561.08 114.5 565.214 114.5 565.214C114.5 565.214 114.14 557.256 117.006 554.193C122.133 548.71 120.668 542.946 120.668 542.946C120.668 542.946 125.322 542.78 122.842 553.257C120.992 561.08 127.338 565.195 127.338 565.195C127.338 565.195 126.035 560.09 130.008 557.675C134.209 555.123 136.94 552.689 138.467 548.021C139.361 545.293 141.439 534.571 140.101 526.303C143.385 526.545 147.52 526.058 148.646 522.775C137.426 520.952 144.211 501.388 142.177 489.336C141.338 484.361 138.548 472.431 136.877 466.257C131.832 470.486 123.407 473.451 114.134 470.731C107.914 468.906 102.159 464.728 107.547 452.091Z" fill="#161413"/>
    <path d="M125.142 468.177C125.142 468.177 123.319 470.793 125.142 473.133C126.968 475.472 134.154 472.17 134.208 467.255C134.264 462.34 125.142 468.177 125.142 468.177Z" fill="#FABAAC"/>
    <path d="M114.116 346.956C114.855 345.536 115.144 344.054 115.255 342.544C112.171 340.099 107.057 336.033 104.954 334.295C101.545 331.474 94.5567 325.942 89.3276 325.966C87.248 325.974 87.9525 327.865 87.9525 327.865C87.9525 327.865 87.5785 328.031 85.8688 328.477C84.5384 328.822 84.8232 331.009 84.1049 331.033C83.0306 331.069 82.4515 331.675 82.2135 332.714C82.069 333.348 82.1189 334.485 81.2338 335.179C79.4167 336.607 80.6334 339.857 82.7012 343.779C85.0092 348.158 86.7136 345.727 86.7136 344.266C88.2936 344.995 89.0618 344.873 89.7536 342.321C92.5505 343.415 92.9148 340.249 92.9148 340.249C92.9148 340.249 94.4961 340.665 95.2463 339.422C96.4152 337.485 94.7392 334.172 94.7392 334.172C94.7392 334.172 99.0342 338.274 99.7252 338.91C100.417 339.55 97.5128 338.851 95.1038 340.665C92.8468 342.368 91.7005 346.333 94.1315 345.604C96.8847 344.777 96.1015 343.379 99.0408 344.389C101.035 345.074 103.728 348.455 106.957 348.672C108.305 348.762 110.405 349.333 112.397 349.967C112.96 348.969 113.572 348.001 114.116 346.956Z" fill="#D86638"/>
    <path d="M94.7402 334.172C94.7402 334.172 95.1654 330.655 97.9324 329.132C100.698 327.606 102.158 327.979 102.402 329.132C102.645 330.283 100.213 333.93 99.7251 335.388C99.2382 336.849 100.021 339.231 100.021 339.231L96.2279 339.857C96.2279 339.857 96.4415 336.666 94.7402 334.172Z" fill="#FABAAC"/>
    <path d="M106.387 350.432L112.421 353.384C112.52 353.321 112.603 353.228 112.715 353.196C117.796 351.64 119.66 347.655 119.659 342.683C119.482 342.196 119.289 341.786 119.062 341.59C116.546 339.452 109.941 337.031 109.941 337.031C109.941 337.031 111.207 340.434 110.289 344.266C109.664 346.891 107.68 349.238 106.387 350.432Z" fill="#161413"/>
    <path d="M137.963 353.383C137.963 353.383 140.466 359.052 143.385 362.261C146.304 365.468 154.33 371.139 154.33 371.139C154.33 371.139 149.8 364.573 146.045 360.561C142.29 356.549 137.963 353.383 137.963 353.383Z" fill="#161413"/>
    <path d="M133.084 362.825C133.084 362.825 135.723 366.581 139.554 367.856C143.385 369.135 147.033 370.228 147.033 370.228C147.033 370.228 143.566 367.386 140.283 365.341C137 363.298 133.084 362.825 133.084 362.825Z" fill="#161413"/>
    <path d="M179.722 370.228C178.815 368.221 160.167 357.278 160.167 357.278C160.167 357.278 162.293 363.3 164.877 366.526C166.971 369.14 174.032 376.979 174.032 376.979C174.032 376.979 167.281 372.695 163.087 369.314C163.087 369.314 166.372 375.456 170.569 380.442C172.452 382.68 179.244 389.034 179.244 389.034C179.244 389.034 177.681 377.523 179.722 370.228Z" fill="#161413"/>
    <path d="M187.517 452.091L180.72 458.692C180.72 458.692 180.221 461.91 183.997 465.286C187.772 468.664 190.702 467.995 190.702 467.995L197.745 460.651L187.517 452.091Z" fill="#161413"/>
  </g>
  <ellipse cx="331.431" cy="323.417" rx="68.0503" ry="21.2951" transform="rotate(16.6914 331.431 323.417)" fill="black" fill-opacity="0.15"/>
  <ellipse cx="437.237" cy="288.87" rx="41.1631" ry="16.8295" transform="rotate(21.6228 437.237 288.87)" fill="black" fill-opacity="0.15"/>
  <g clip-path="url(#clip3_612_1022)">
    <path d="M286.3 284.331C286.3 284.331 278.842 291.237 276.314 293.354C273.787 295.47 274.209 298.839 276.314 302.208C278.42 305.577 280.174 308.524 280.77 310.632C281.367 312.737 280.706 318.012 286.3 321.269C291.896 324.528 298.634 324.528 300.32 324.95C302.004 325.372 304.109 322.844 301.584 317.37C299.056 311.896 296.962 304.665 296.962 304.665L286.3 284.331Z" fill="#1C1B1A"/>
    <path d="M389.842 138.292C389.842 138.292 392.197 131.611 394.897 128.157C397.598 124.701 398.137 123.717 403.415 122.041C408.694 120.365 410.848 118.656 415.414 122.899C417.696 125.02 414.27 125.66 412.19 127.891C410.112 130.123 409.38 133.946 407.926 134.214C405.02 134.753 401.587 136.278 399.468 139.026C397.348 141.771 389.842 138.292 389.842 138.292Z" fill="#D86638"/>
    <path d="M372.242 321.322C372.242 321.322 377.705 327.959 380.198 330.479C382.689 333 385.154 335.488 387.579 337.577C390.89 340.433 388.452 342.341 385.911 344.244C383.372 346.15 377.625 345.198 372.242 342.657C366.864 340.118 360.944 335.488 358.256 334.392C355.839 333.406 352.103 330.215 351.302 325.615C350.403 320.48 372.242 321.322 372.242 321.322Z" fill="#1C1B1A"/>
    <path d="M391.044 135.246C387.869 141.443 380.416 152.86 378.083 158.724C374.31 151.702 370.668 135.545 364.395 132.04C356.678 127.726 351.274 134.967 351.274 134.967C351.274 134.967 359.999 154.174 364.125 162.809C366.519 167.817 369.804 171.514 371.918 173.337C378.023 178.601 379.106 175.968 382.867 173.968C388.569 170.941 391.651 163.639 392.727 160.579C393.42 158.609 397.695 146.025 399.468 139.026C394.805 138.904 392.213 136.586 391.044 135.246Z" fill="#161413"/>
    <path d="M295.052 78.3769C295.052 78.3769 290.584 71.3178 287.431 67.6231C282.199 61.4975 276.06 57.5872 270.885 55.498C261.973 51.8996 269.037 62.1488 271.057 64.9238C273.287 67.9878 277.057 70.7559 277.057 70.7559C277.057 70.7559 273.438 71.4325 271.186 73.258C267.805 76.0009 269.872 76.7899 273.255 76.0009C276.082 75.3381 278.342 75.595 281.683 76.3954C285.027 77.1958 287.431 80.5074 287.431 80.5074L295.052 78.3769Z" fill="#D86638"/>
    <path d="M351.274 196.526C353.088 200.195 360.742 236.988 366.021 262.266C369.111 277.057 373.124 318.634 373.124 318.634C373.124 318.634 373.131 324.108 364.882 326.794C356.492 329.523 348.754 326.794 348.754 326.794C348.754 326.794 341.449 285.079 341.449 268.995C333.17 246.119 329.975 206.133 329.433 202.975C328.894 199.817 351.274 196.526 351.274 196.526Z" fill="#161413"/>
    <path d="M341.286 198.81C341.286 198.81 333.919 241.142 326.431 258.831C318.941 276.518 304.533 299.667 304.533 299.667C299.685 303.669 292.226 309.788 283.472 301.367C278.944 297.007 280.77 287.542 280.77 287.542C280.77 287.542 302.73 254.726 304.627 249.93C306.505 236.509 307.879 200.971 318.709 189.972C329.539 178.975 341.286 198.81 341.286 198.81Z" fill="#161413"/>
    <path d="M339.038 138.989C339.038 138.989 334.089 143.897 329.637 144.308C325.188 144.718 327.128 153.88 328.241 163.916C329.426 174.601 323.846 177.216 318.787 186.651C313.622 196.283 312.794 203.163 312.794 203.163C312.794 203.163 323.147 210.846 332.433 211.997C343.291 213.346 354.077 208.766 354.077 208.766C354.077 208.766 353.74 201.911 357.017 194.815C361.602 184.89 370.29 172.863 370.718 164.072C371.457 148.998 366.443 140.338 363.09 134.971C358.434 125.146 354.21 130.29 352.754 132.907C350.07 137.73 339.038 138.989 339.038 138.989Z" fill="#1C1B1A"/>
    <path d="M346.573 123.568C346.573 123.568 345.048 134.769 343.314 136.164C343.009 139.712 345.825 142.237 347.282 143.966C348.733 145.695 355.756 147.677 358.9 145.22C360.389 144.06 356.635 137.843 358.694 132.905C360.758 127.965 346.573 123.568 346.573 123.568Z" fill="#C14A22"/>
    <path d="M348.89 104.24C353.807 100.495 365.458 99.2929 369.712 111.331C374.171 123.956 362.747 139.723 356.66 137.045C353.25 135.545 346.08 130.215 344.062 123.568C341.789 116.087 345.066 107.152 348.89 104.24Z" fill="#D86638"/>
    <path d="M350.157 122.241C350.157 122.241 347.9 117.535 345.774 118.906C344.203 119.922 344.061 123.568 344.061 123.568C344.061 123.568 340.192 118.016 341.869 110.473C342.914 105.772 348.783 97.676 357.017 98.6094C367.657 99.8134 371.927 109.689 370.718 115.376C369.374 111.257 365.457 110.099 360.258 111.402C351.43 113.611 350.157 122.241 350.157 122.241Z" fill="#161413"/>
    <path d="M291.38 72.8682L286.3 79.7071C286.3 79.7071 292.068 95.5614 298.797 105.395C305.778 115.601 317.828 138.622 325.484 151.509C328.938 157.32 329.427 168.283 329.427 168.283L351.274 146.372C351.274 146.372 343.185 134.996 336.539 127.891C327.225 117.931 319.317 109.874 315.691 104.297C300.109 80.3149 291.38 72.8682 291.38 72.8682Z" fill="#1C1B1A"/>
    <path d="M422.205 256.87C418.987 254.971 418.49 252.657 416.15 249.648C418.297 244.311 418.676 234.035 419.864 228.4C421.366 221.272 426.492 211.55 426.492 211.55L445.72 159.862C445.72 159.862 451.229 169.432 451.397 180.683C451.466 185.364 449.956 190.639 447.787 196.201C440.399 215.137 422.652 254.852 422.205 256.87Z" fill="#C14A22"/>
    <path d="M417.311 245.616C420.91 245.761 423.919 244.614 427.577 244.029C425.933 248.985 420.35 255.934 422.142 262.094C423.543 266.915 427.91 276.265 429.806 279.522C432.049 283.373 433.432 286.246 425.584 285.801C422.632 285.634 419.3 283.049 418.38 281.735C416.658 279.27 416.786 274.327 414.979 271.518C413.798 269.676 411.195 267.894 410.041 265.381C409.436 264.06 409.782 258.959 411.013 256.87C412.367 254.579 415.302 251.985 417.311 245.616Z" fill="#C14A22"/>
    <path d="M509.773 0.793509C501.764 3.14195 498.322 7.52465 496.783 9.80888C495.242 12.0931 492.116 17.5078 489.708 21.3446C487.765 24.4453 480.288 41.1092 478.46 48.9801C477.034 55.131 467.896 85.0668 467.896 85.0668L479.27 95.7242C479.27 95.7242 482.813 85.9085 484.999 74.7993C485.852 70.4647 490.084 59.3555 492.808 48.7966C495.9 36.8182 496.613 27.4428 497.627 24.122C499.749 17.1799 502.336 15.7901 506.562 14.6755C510.283 13.6916 515.106 9.27683 517.849 7.29991C520.589 5.323 520.956 -2.48376 509.773 0.793509Z" fill="#C14A22"/>
    <path d="M451.064 292.15C450.404 291.289 443.505 282.237 443.505 277.059C443.505 273.229 442.686 270.741 441.633 268.995C442.106 267.986 442.434 266.684 442.328 264.663C442.186 261.849 438.365 248.485 436.932 238.794C435.161 226.838 435.886 218.107 437.911 213.195C439.938 206.211 437.883 188.403 437.911 178.702C437.918 176.606 437.911 144.982 437.911 144.982C437.911 144.982 456.855 119.922 456.367 124.814C455.876 129.706 469.174 149.764 469.174 149.764C469.174 149.764 463.24 159.086 464.015 167.464C464.788 175.842 457.853 199.801 454.415 208.766C450.351 219.362 454.415 239.332 451.064 257.657C449.553 265.908 453.663 275.731 454.956 278.524C455.754 280.247 456.22 284.297 457.981 287.57C458.642 288.794 459.559 290.287 460.428 291.647C458.085 292.7 452.954 294.613 451.064 292.15Z" fill="#D86638"/>
    <path d="M451.064 299.248C447.512 298.454 448.138 292.182 446.337 286.492C445.441 283.652 439.709 278.807 439.354 275.396C438.996 271.954 440.64 271.131 441.633 268.995C442.686 270.741 443.505 273.229 443.505 277.059C443.505 282.237 450.404 291.289 451.064 292.15C452.954 294.613 458.085 292.7 460.429 291.647C461.002 292.546 461.559 293.399 461.995 294.037C464.864 298.227 457.605 300.708 451.064 299.248Z" fill="#4EBF5C"/>
    <path d="M420.442 287.12C416.889 286.326 417.517 280.056 415.717 274.364C414.818 271.525 409.086 266.681 408.733 263.269C408.373 259.826 410.018 259.005 411.013 256.87C412.066 258.615 412.882 261.104 412.882 264.934C412.882 270.112 419.781 279.162 420.442 280.024C422.331 282.487 427.464 280.575 429.806 279.522C430.379 280.421 430.937 281.272 431.375 281.909C434.244 286.099 426.985 288.583 420.442 287.12Z" fill="#38B84F"/>
    <path d="M439.354 275.396C439.354 275.396 440.42 281.737 440.941 293.353C440.961 293.865 442.881 294.535 442.986 293.353C443.367 289.079 442.881 277.944 442.881 277.944L439.354 275.396Z" fill="#4EBF5C"/>
    <path d="M409.038 264.182C409.038 264.182 410.105 270.525 410.625 282.141C410.648 282.653 412.568 283.322 412.671 282.141C413.052 277.866 412.568 266.732 412.568 266.732L409.038 264.182Z" fill="#38B84F"/>
    <path d="M447.89 100.852C447.09 96.0592 452.897 89.9495 455.89 85.631C456.924 87.124 463.39 87.7295 470.307 87.1791C472.328 87.0163 473.887 86.6837 475.094 86.2961C475.818 87.5093 476.704 88.7868 477.83 90.1261C487.813 102.031 489.359 106.219 487.015 116.468C485.435 123.396 486.765 125.208 480.32 135.545C474.541 144.808 466.179 152.302 466.179 152.302L452.881 132.242C452.881 132.242 459.177 130.63 456.498 124.199C453.817 117.766 448.854 106.641 447.89 100.852Z" fill="#D86638"/>
    <path d="M455.89 85.631C456.511 84.7343 457.018 83.9109 457.312 83.1977C459.016 79.0466 457.312 72.8682 457.312 72.8682L472.297 75.9987C472.297 75.9987 471.465 80.23 475.093 86.2961C473.887 86.6836 472.327 87.0162 470.307 87.179C463.389 87.7295 456.924 87.124 455.89 85.631Z" fill="#C14A22"/>
    <path d="M477.038 54.9659C482.997 61.1581 480.593 82.5739 471.839 83.9775C466.165 84.8879 458.193 79.8425 455.314 69.9281C452.902 61.6191 465.763 43.2444 477.038 54.9659Z" fill="#D86638"/>
    <path d="M451.959 50.9044C451.959 55.4958 455.213 59.2157 459.232 59.2157C463.248 59.2157 466.502 55.4958 466.502 50.9044C466.502 46.3153 463.248 42.5954 459.232 42.5954C455.213 42.5954 451.959 46.3153 451.959 50.9044Z" fill="#161413"/>
    <path d="M479.774 60.0962C479.774 60.0962 471.995 63.9147 463.089 62.5456C461.819 63.8115 461.436 65.7219 460.715 67.6232C455.849 64.5202 455.314 69.928 458.046 72.8682C458.821 74.2121 457.764 76.267 457.764 76.267C457.764 76.267 451.514 70.3844 452.702 61.5892C453.888 52.794 461.468 45.5377 473.775 51.1818C478.673 53.4293 479.774 60.0962 479.774 60.0962Z" fill="#1C1B1A"/>
    <path d="M466.502 158.836C464.995 167.441 466.078 171.372 466.078 171.372C466.078 171.372 437.203 194.657 422.141 190.868C411.928 188.297 415.527 172.844 417.937 165.125C420.667 156.399 423.721 151.227 431.556 140.489C436.934 133.116 451.418 127.726 453.587 121.949C454.973 118.268 449.264 106.829 449.264 106.829C449.264 106.829 457.514 113.539 460.663 102.99C462.67 96.2632 459.25 89.5848 460.945 86.7662C467.896 89.7958 475.483 86.7662 475.483 86.7662C475.483 86.7662 478.433 90.5114 484.655 98.1507C490.875 105.788 488.352 121.126 482.836 131.222C475.093 145.399 467.816 151.339 466.502 158.836Z" fill="#4EBF5C"/>
    <path d="M477.132 88.0895C477.132 88.0895 470.667 90.8646 466.502 90.2453C460.86 89.406 455.021 86.8442 455.021 86.8442L457.312 83.1977C457.312 83.1977 463.99 86.819 466.502 86.819C469.497 86.819 474.706 84.677 474.706 84.677L477.132 88.0895Z" fill="#38B84F"/>
    <path d="M450.684 109.975C450.684 109.975 455.89 118.697 463.472 120.92C470.403 122.952 474.277 121.245 477.132 115.867C479.244 111.893 480.32 105.292 480.32 105.292C480.32 105.292 481.533 111.017 478.772 117.418C476.297 123.153 470.651 126.107 463.073 123.374C456.738 121.087 453.131 116.33 453.131 116.33L450.684 109.975Z" fill="white"/>
    <path d="M479.357 98.5544C479.357 98.5544 478.231 103.742 477.311 111.152C476.66 116.413 470.832 117.869 470.832 117.869C470.832 117.869 475.942 114.847 476.382 107.512C476.788 100.749 479.357 98.5544 479.357 98.5544Z" fill="white"/>
    <path d="M481.316 94.0385C481.316 94.0385 477.963 96.2471 476.547 100.288C475.135 104.331 474.325 108.446 474.325 108.446C474.325 108.446 473.786 102.529 475.738 98.1506C477.694 93.7702 479.774 92.1304 479.774 92.1304L481.316 94.0385Z" fill="white"/>
    <path d="M476.233 126.266C476.233 126.266 470.316 127.882 466.077 126.713C461.176 125.364 457.009 121.949 457.009 121.949C457.009 121.949 459.406 127.197 465.006 128.779C471.203 130.534 476.233 126.266 476.233 126.266Z" fill="white"/>
    <path d="M455.89 124.403C455.89 124.403 458.339 128.424 461.683 130.534C465.025 132.643 470.316 134.079 470.316 134.079C470.316 134.079 464.717 134.948 460.584 132.283C456.452 129.618 455.89 124.403 455.89 124.403Z" fill="white"/>
    <path d="M380.762 191.738L376.655 196.554C376.655 196.554 375.077 199.553 377.368 201.686C379.173 203.367 381.157 199.712 382.615 203.739C384.017 207.612 385.92 208.894 389.184 207.213C392.45 205.532 392.766 210.397 393.714 211.924C394.661 213.451 398.055 210.53 399.468 212.582C400.583 214.206 397.009 217.559 399.468 218.82C401.927 220.084 403.346 216.451 405.401 218.82C406.147 219.68 406.36 224.191 409.039 222.611C411.718 221.031 412.185 218.031 413.614 219.295C415.041 220.559 416.772 225.813 418.35 222.948C419.928 220.084 418.593 214.761 420.653 214.965C423.722 215.268 421.194 218.031 422.456 220.348C423.082 221.501 426.88 218.93 427.827 220.93C428.774 222.928 427.648 226.333 430.423 226.051C433.198 225.769 432.281 222.171 434.46 223.006C436.641 223.841 437.198 228.228 439.304 226.051C441.409 223.875 439.425 220.827 442.437 220.93C445.443 221.031 446.739 222.157 447.569 221.348C449.771 219.201 445.065 217.515 447.815 214.965C449.42 213.474 450.941 215.85 452.228 213.346C453.062 211.724 450.65 210.401 451.4 207.344C452.147 204.292 453.413 206.649 454.993 208.766C455.796 209.846 458.626 211.321 459.257 208.365C459.695 206.305 461.784 205.95 465.573 205.477C469.465 204.989 473.479 202.152 471.101 199.395C468.725 196.639 471.731 195.132 474.256 196.526C475.924 197.448 477.284 196.973 476.628 193.029C476.408 191.701 477.169 189.829 480.261 190.476C484.132 191.286 487.339 190.316 485.063 187.155C482.788 183.997 483.013 183.578 486.343 182.736C489.671 181.892 484.708 178.328 487.921 177.601C491.419 176.812 490.517 172.39 490.517 172.39L481.605 173.496L380.762 191.738Z" fill="#4EBF5C"/>
    <path d="M396.116 175.865C383.92 184.708 380.186 186.681 375.867 192.29C378.709 197.184 382.525 191.857 384.709 198.606C386.894 205.356 393.782 205.757 396.116 203.129C398.449 200.501 402.557 201.767 403.662 207.294C404.756 212.77 403.609 219.334 411.754 217.453C418.824 215.821 415.629 208.252 420.877 206.502C427.037 204.45 423.815 211.665 428.851 217.414C433.89 223.166 441.289 221.148 442.989 216.451C446.303 207.294 443.037 197.226 450.683 200.186C458.327 203.147 465.302 204.175 466.623 199.553C467.942 194.932 471.854 188.483 473.63 188.499C476.98 188.529 481.81 189.068 480.586 183.41C479.157 176.812 481.737 176.544 482.788 175.548C487.973 170.654 482.668 167.882 482.668 167.882L465.703 166.705C465.703 166.705 461.144 167.969 457.009 172.39C452.876 176.812 450.566 179.339 444.947 176.463C437.982 172.9 436.126 173.812 433.037 177.601C429.952 181.392 428.143 184.708 423.246 184.55C418.106 184.385 417.21 179.654 417.937 173.338C418.666 167.021 417.937 165.125 417.937 165.125C417.937 165.125 408.311 167.021 396.116 175.865Z" fill="#38B84F"/>
    <path d="M433.776 181.13C433.776 181.13 429.981 195.87 430.465 203.661C430.841 209.709 435.093 211.924 435.093 211.924C435.093 211.924 434.357 206.374 433.776 197.542C433.198 188.71 433.776 181.13 433.776 181.13Z" fill="#2DA441"/>
    <path d="M420.652 188.499C420.652 188.499 415.719 198.395 413.192 203.45C410.662 208.504 409.749 213.346 409.749 213.346C409.749 213.346 415.728 208.082 417.824 200.922C419.918 193.762 420.652 188.499 420.652 188.499Z" fill="#2DA441"/>
    <path d="M445.831 183.41C445.831 183.41 447.06 190.93 452.551 194.242C458.046 197.554 460.993 197.542 460.993 197.542C460.993 197.542 459.308 195.088 454.255 191.267C449.2 187.447 445.831 183.41 445.831 183.41Z" fill="#2DA441"/>
    <path d="M409.749 181.131C409.749 181.131 403.504 188.449 398.871 191.738C394.238 195.026 389.184 198.817 389.184 198.817C389.184 198.817 395.502 198.609 402.032 193.029C408.557 187.447 409.749 181.131 409.749 181.131Z" fill="#2DA441"/>
    <path d="M460.993 176.498C460.993 176.498 466.77 182.323 470.832 183.41C474.892 184.497 477.786 185.341 477.786 185.341C477.786 185.341 476.456 179.865 470.832 178.39C465.206 176.918 460.993 176.498 460.993 176.498Z" fill="#2DA441"/>
    <path d="M447.815 127.891C447.815 127.891 446.214 138.363 452.551 142.374C458.888 146.385 465.493 146.594 465.493 146.594C465.493 146.594 459.073 149.332 451.399 145.122C443.725 140.911 443.023 131.114 443.023 131.114L447.815 127.891Z" fill="white"/>
    <path d="M439.925 138.292C439.925 138.292 438.934 146.757 446.936 149.683C454.938 152.61 459.449 151.135 459.449 151.135C459.449 151.135 451.023 149.633 446.936 146.927C442.847 144.216 439.925 138.292 439.925 138.292Z" fill="white"/>
    <path d="M437.054 139.59C437.054 139.59 434.317 148.012 438.528 152.436C442.739 156.857 445.267 156.646 445.267 156.646C445.267 156.646 440.423 152.858 439.159 148.119C437.895 143.379 437.054 139.59 437.054 139.59Z" fill="white"/>
    <path d="M457.257 108.212L453.028 103.077L455.021 86.8443C455.021 86.8443 445.179 89.3555 443.457 96.848C442.595 100.593 441.17 106.063 437.842 113.542C436.356 116.886 435.26 119.72 434.732 121.949C432.547 121.206 421.577 119.741 415.527 118.966C408.371 118.048 408.396 118.475 404.818 118.874C401.236 119.271 394.791 122.36 393.197 123.497C388.131 127.116 393.067 135.939 397.082 134.214C401.098 132.49 408.979 126.38 413.297 126.38C413.972 126.38 417.875 128.616 423.088 130.802C429.37 133.435 437.214 136.074 439.161 135.723C439.535 135.655 442.244 133.575 443.023 132.027C444.287 129.511 445.324 126.937 446.078 125.575C449.122 120.08 457.257 108.212 457.257 108.212Z" fill="#D86638"/>
  </g>
  <defs>
    <clipPath id="clip0_612_1022">
      <rect width="201.028" height="281.601" fill="white" transform="translate(6.82422 66.0272)"/>
    </clipPath>
    <clipPath id="clip1_612_1022">
      <rect width="338.887" height="340.478" fill="white" transform="translate(334.113 276.837)"/>
    </clipPath>
    <clipPath id="clip2_612_1022">
      <rect width="202.855" height="291.952" fill="white" transform="translate(80.3467 323.772)"/>
    </clipPath>
    <clipPath id="clip3_612_1022">
      <rect width="252.972" height="345.251" fill="white" transform="translate(266.489)"/>
    </clipPath>
  </defs>
</svg>
